# xmcd CD database file
#
# Track frame offsets:
#	150
#	14640
#	39354
#	58440
#	75244
#	101536
#	119576
#	140440
#	161912
#	179208
#	201383
#
# Disc length: 2929 seconds
#
# Revision: 0
# Processed by: cddbd v1.5PL3 Copyright (c) Steve Scherf et al.
# Submitted via: CDex 1.51
#
DISCID=a30b6f0b
DTITLE=Gamba Blues Band - ODPAD-to co se neveslo na CD
DYEAR=1999
DGENRE=Blues
TTITLE0=Heartbreakers make strongs
TTITLE1=Turning My Way
TTITLE2=Cocaine
TTITLE3=Dealing with The Devil
TTITLE4=Hoochie Coochie Man
TTITLE5=Anything for your Love
TTITLE6=A big man
TTITLE7=Hej mladej
TTITLE8=Stranger Blues
TTITLE9=White Room
TTITLE10=Sunshine of Your Love
EXTD=YEAR: 1999
EXTT0=
EXTT1=
EXTT2=
EXTT3=
EXTT4=
EXTT5=
EXTT6=
EXTT7=
EXTT8=
EXTT9=
EXTT10=
PLAYORDER=
